<?xml version="1.0" encoding="utf-8"?>
<!DOCTYPE svg PUBLIC "-//W3C//DTD SVG 1.1//EN" "http://www.w3.org/Graphics/SVG/1.1/DTD/svg11.dtd">
<svg version="1.1" id="Capa_1" xmlns="http://www.w3.org/2000/svg" xmlns:xlink="http://www.w3.org/1999/xlink" x="0px" y="0px"
	 width="960px" height="400px" viewBox="0 0 960 560" enable-background="new 0 0 960 560" xml:space="preserve">
<circle fill="none" stroke="#000000" stroke-width="4" stroke-miterlimit="10" cx="216.652" cy="240.594" r="111.176"/>
<path fill="#00C9FF" stroke="#00C9FF" stroke-width="10" stroke-miterlimit="10" d="M132.169,326.319
	c-46.745-46.745-46.742-122.806,0.003-169.551c46.745-46.745,122.801-46.743,169.546,0.002c2.89,2.889,2.884,7.576-0.002,10.462
	c-2.887,2.887-7.573,2.892-10.462,0.002c-40.975-40.975-107.644-40.976-148.618-0.002c-40.978,40.978-40.978,107.648-0.003,148.623
	c39.031,39.031,102.077,41.108,143.536,4.729c3.069-2.704,7.805-2.404,10.439,0.678c2.697,3.069,2.395,7.746-0.678,10.439
	C248.627,373.211,176.698,370.849,132.169,326.319z"/>
<rect x="81.137" y="104.968" transform="matrix(0.7071 0.7071 -0.7071 0.7071 233.7945 -82.8808)" fill-rule="evenodd" clip-rule="evenodd" fill="none" width="271.612" height="240"/>
<g>
	<path d="M435.671,333.457c0-18.479,13.495-33.372,32.084-33.372s32.084,14.894,32.084,33.372c0,18.387-13.495,33.28-32.084,33.28
		S435.671,351.844,435.671,333.457z M445.233,333.457c0,13.882,9.563,24.087,22.521,24.087c12.959,0,22.521-10.205,22.521-24.087
		c0-13.974-9.563-24.179-22.521-24.179C454.796,309.278,445.233,319.483,445.233,333.457z"/>
	<path d="M508.951,301.188h8.401l31.994,39.439v-39.439h8.58v65.457l-40.396-50.84v49.736h-8.58V301.188z"/>
	<path d="M594.922,327.94c9.831,0,17.695,8.643,17.695,18.571c0,10.112-7.774,19.03-18.41,19.03h-23.504v-9.193h22.61
		c5.362,0,9.652-4.413,9.652-9.837c0-5.517-4.29-9.837-9.652-9.837h-8.222c-9.652,0-17.338-7.906-17.338-17.743
		s7.686-17.743,17.338-17.743h19.482v8.733h-18.41c-5.273,0-9.116,3.861-9.116,9.01s3.843,9.009,9.116,9.009H594.922z"/>
	<path d="M621.91,301.188h34.676v8.917h-25.561v17.56h24.756v8.642h-24.756v20.042h26.097v9.193H621.91V301.188z"/>
	<path d="M667.665,301.188h8.401l31.994,39.439v-39.439h8.58v65.457l-40.396-50.84v49.736h-8.58V301.188z"/>
	<path d="M753.636,327.94c9.831,0,17.695,8.643,17.695,18.571c0,10.112-7.774,19.03-18.41,19.03h-23.504v-9.193h22.61
		c5.362,0,9.652-4.413,9.652-9.837c0-5.517-4.29-9.837-9.652-9.837h-8.222c-9.652,0-17.338-7.906-17.338-17.743
		s7.686-17.743,17.338-17.743h19.482v8.733h-18.41c-5.273,0-9.116,3.861-9.116,9.01s3.843,9.009,9.116,9.009H753.636z"/>
	<path d="M789.738,301.188v43.668c0,7.999,5.541,12.871,12.333,12.871c6.793,0,12.423-4.872,12.423-12.871v-43.668h9.116v43.668
		c0,13.606-9.652,21.881-21.628,21.881c-11.887,0-21.359-8.091-21.359-21.881v-43.668H789.738z"/>
	<path d="M860.159,327.94c9.831,0,17.695,8.643,17.695,18.571c0,10.112-7.774,19.03-18.41,19.03H835.94v-9.193h22.61
		c5.362,0,9.652-4.413,9.652-9.837c0-5.517-4.29-9.837-9.652-9.837h-8.222c-9.652,0-17.338-7.906-17.338-17.743
		s7.686-17.743,17.338-17.743h19.482v8.733h-18.41c-5.273,0-9.116,3.861-9.116,9.01s3.843,9.009,9.116,9.009H860.159z"/>
</g>
<path stroke="#000000" stroke-width="5" stroke-miterlimit="10" d="M383.959,353.969c-12.013-12.013-12.012-31.559,0.001-43.572
	c12.013-12.013,31.558-12.012,43.571,0c0.743,0.743,0.741,1.947-0.001,2.689c-0.742,0.742-1.946,0.743-2.689,0.001
	c-10.53-10.53-27.663-10.53-38.193-0.001c-10.531,10.531-10.531,27.664-0.001,38.194c10.03,10.03,26.233,10.564,36.887,1.215
	c0.789-0.695,2.006-0.618,2.683,0.174c0.693,0.789,0.616,1.991-0.174,2.683C413.887,366.019,395.402,365.412,383.959,353.969z"/>
</svg>
